<!-- Generated by IcoMoon.io -->
<svg version="1.1" xmlns="http://www.w3.org/2000/svg" width="26" height="32" viewBox="0 0 26 32">
<title>arrow</title>
<path d="M12.8 1.536c-6.215 0-11.264 5.049-11.264 11.264s5.049 11.264 11.264 11.264c6.215 0 11.264-5.049 11.264-11.264s-5.049-11.264-11.264-11.264zM12.8 2.56c5.661 0 10.24 4.579 10.24 10.24s-4.579 10.24-10.24 10.24c-5.661 0-10.24-4.579-10.24-10.24s4.579-10.24 10.24-10.24zM14.528 9.472c-0.251 0.035-0.442 0.249-0.442 0.507 0 0.151 0.065 0.287 0.169 0.381l0 0 2.096 1.928h-8.392c-0.007-0-0.016-0.001-0.024-0.001s-0.017 0-0.025 0.001l0.001-0c-0.272 0.013-0.488 0.237-0.488 0.512 0 0.283 0.229 0.513 0.512 0.513 0.008 0 0.017-0 0.025-0.001l-0.001 0h8.392l-2.096 1.92c-0.103 0.094-0.168 0.23-0.168 0.38 0 0.283 0.229 0.513 0.512 0.513 0.133 0 0.254-0.050 0.344-0.133l-0 0 3.064-2.816c0.104-0.094 0.169-0.229 0.169-0.38s-0.065-0.286-0.168-0.38l-0-0-3.064-2.808c-0.091-0.085-0.213-0.136-0.347-0.136-0.007 0-0.015 0-0.022 0l0.001-0c-0.007-0-0.016-0.001-0.024-0.001s-0.017 0-0.025 0.001l0.001-0z"></path>
</svg>
