<!-- Generated by IcoMoon.io -->
<svg version="1.1" xmlns="http://www.w3.org/2000/svg" width="26" height="32" viewBox="0 0 26 32">
<title>cart</title>
<path d="M24.131 4.081c-0.095-0.113-0.236-0.184-0.393-0.184-0 0-0.001 0-0.001 0h-8.489c-0.283 0-0.512 0.229-0.512 0.512s0.229 0.512 0.512 0.512v0h7.875l-1.508 8.123c-0.205 1.079-1.141 1.884-2.265 1.884-0 0-0 0-0 0h-9.188c-0 0-0.001 0-0.001 0-1.132 0-2.074-0.817-2.267-1.893l-0.002-0.014-1.329-7.583c-0.24-1.332-1.39-2.329-2.772-2.33h-1.925c-0.283 0-0.512 0.229-0.512 0.512s0.229 0.512 0.512 0.512v0h1.925c0.88 0.001 1.611 0.635 1.762 1.471l0.002 0.011 1.329 7.583c0.283 1.575 1.642 2.754 3.277 2.755h9.19c0.001 0 0.001 0 0.002 0 1.623 0 2.975-1.162 3.269-2.7l0.003-0.021 1.62-8.73c0.005-0.027 0.008-0.058 0.008-0.090 0-0.126-0.046-0.242-0.121-0.331l0.001 0.001z"></path>
<path d="M10.435 22.492c1.325 0 2.399-1.074 2.399-2.399s-1.074-2.399-2.399-2.399c-1.325 0-2.399 1.074-2.399 2.399v0c0.001 1.324 1.075 2.397 2.399 2.399h0zM10.435 18.719c0.759 0 1.375 0.615 1.375 1.375s-0.615 1.375-1.375 1.375c-0.759 0-1.375-0.615-1.375-1.375v0c0.001-0.758 0.616-1.372 1.375-1.372 0 0 0 0 0 0v0z"></path>
<path d="M21.714 20.096c0-1.325-1.074-2.399-2.399-2.399s-2.399 1.074-2.399 2.399c0 1.325 1.074 2.399 2.399 2.399v0c1.324-0.001 2.397-1.075 2.399-2.399v-0zM17.94 20.096c0-0.759 0.615-1.375 1.375-1.375s1.375 0.615 1.375 1.375c0 0.759-0.615 1.375-1.375 1.375v0c-0.759 0-1.375-0.615-1.375-1.375v0z"></path>
</svg>
