<!-- Generated by IcoMoon.io -->
<svg version="1.1" xmlns="http://www.w3.org/2000/svg" width="26" height="32" viewBox="0 0 26 32">
<title>grid</title>
<path d="M20.71 2.355h-15.821c-1.272 0-2.304 1.032-2.304 2.304v0 16.282c0 1.272 1.032 2.304 2.304 2.304v0h15.821c1.272 0 2.304-1.032 2.304-2.304v0-16.282c0-1.272-1.032-2.304-2.304-2.304v0zM22.502 20.966c0 0.99-0.802 1.792-1.792 1.792v0h-15.821c-0.99 0-1.792-0.802-1.792-1.792v0-16.307c0-0.99 0.802-1.792 1.792-1.792v0h15.821c0.99 0 1.792 0.802 1.792 1.792v0z"></path>
<path d="M20.198 4.89h-14.797c-0.141 0-0.256 0.115-0.256 0.256v0 6.349c0 0.141 0.115 0.256 0.256 0.256v0h14.797c0.141 0 0.256-0.115 0.256-0.256v0-6.349c0-0.141-0.115-0.256-0.256-0.256v0zM19.942 11.238h-14.285v-5.837h14.285z"></path>
<path d="M20.198 13.85h-8.166c-0.141 0-0.256 0.115-0.256 0.256v0 6.349c0 0.141 0.115 0.256 0.256 0.256v0h8.166c0.141 0 0.256-0.115 0.256-0.256v0-6.349c0-0.141-0.115-0.256-0.256-0.256v0zM19.942 20.198h-7.654v-5.837h7.654z"></path>
<path d="M9.472 13.85h-4.070c-0.141 0-0.256 0.115-0.256 0.256v0 6.349c0 0.141 0.115 0.256 0.256 0.256v0h4.070c0.141 0 0.256-0.115 0.256-0.256v0-6.349c0-0.141-0.115-0.256-0.256-0.256v0zM9.216 20.198h-3.558v-5.837h3.558z"></path>
</svg>
