<!-- Generated by IcoMoon.io -->
<svg version="1.1" xmlns="http://www.w3.org/2000/svg" width="26" height="32" viewBox="0 0 26 32">
<title>search</title>
<path d="M24.32 22.657l-7.198-7.194c0.95-1.242 1.582-2.752 1.76-4.42 0.517-4.846-2.993-9.194-7.84-9.711s-9.194 2.993-9.711 7.839c-0.517 4.847 2.993 9.194 7.84 9.712 2.336 0.249 4.556-0.44 6.287-1.761l7.202 7.197 1.661-1.662zM9.419 16.546c-3.556-0.379-6.131-3.569-5.752-7.125s3.569-6.132 7.125-5.753 6.131 3.569 5.752 7.125c-0.379 3.556-3.569 6.131-7.125 5.753z"></path>
</svg>
